<mxfile host="Electron" modified="2023-07-21T21:10:52.781Z" agent="Mozilla/5.0 (Windows NT 10.0; Win64; x64) AppleWebKit/537.36 (KHTML, like Gecko) draw.io/21.6.1 Chrome/112.0.5615.204 Electron/24.6.1 Safari/537.36" etag="qygMlDfAlzeK_v5BYUnc" version="21.6.1" type="device">
  <diagram name="Page-1" id="2ZyC1kqVVPjFEnBajxi8">
    <mxGraphModel dx="819" dy="483" grid="1" gridSize="10" guides="1" tooltips="1" connect="1" arrows="1" fold="1" page="1" pageScale="1" pageWidth="850" pageHeight="1100" math="0" shadow="0">
      <root>
        <mxCell id="0" />
        <mxCell id="1" parent="0" />
        <mxCell id="SA-Xk729lbcdhGkagrMY-25" value="USB" style="rounded=0;whiteSpace=wrap;html=1;" vertex="1" parent="1">
          <mxGeometry x="110" y="120" width="60" height="210" as="geometry" />
        </mxCell>
        <mxCell id="SA-Xk729lbcdhGkagrMY-2" value="Master" style="rounded=0;whiteSpace=wrap;html=1;fillColor=#f5f5f5;fontColor=#333333;strokeColor=#666666;" vertex="1" parent="1">
          <mxGeometry x="210" y="130" width="120" height="60" as="geometry" />
        </mxCell>
        <mxCell id="SA-Xk729lbcdhGkagrMY-6" value="Read" style="shape=step;perimeter=stepPerimeter;whiteSpace=wrap;html=1;fixedSize=1;size=10;" vertex="1" parent="1">
          <mxGeometry x="330" y="160" width="120" height="30" as="geometry" />
        </mxCell>
        <mxCell id="SA-Xk729lbcdhGkagrMY-8" value="Write" style="shape=step;perimeter=stepPerimeter;whiteSpace=wrap;html=1;fixedSize=1;size=10;" vertex="1" parent="1">
          <mxGeometry x="330" y="130" width="120" height="30" as="geometry" />
        </mxCell>
        <mxCell id="SA-Xk729lbcdhGkagrMY-9" value="Slave" style="rounded=0;whiteSpace=wrap;html=1;fillColor=#f5f5f5;fontColor=#333333;strokeColor=#666666;" vertex="1" parent="1">
          <mxGeometry x="210" y="240" width="120" height="110" as="geometry" />
        </mxCell>
        <mxCell id="SA-Xk729lbcdhGkagrMY-15" value="" style="endArrow=classic;html=1;rounded=0;" edge="1" parent="1">
          <mxGeometry width="50" height="50" relative="1" as="geometry">
            <mxPoint x="80" y="140" as="sourcePoint" />
            <mxPoint x="560" y="140" as="targetPoint" />
          </mxGeometry>
        </mxCell>
        <mxCell id="SA-Xk729lbcdhGkagrMY-16" value="" style="endArrow=classic;html=1;rounded=0;" edge="1" parent="1">
          <mxGeometry width="50" height="50" relative="1" as="geometry">
            <mxPoint x="80" y="169.17000000000002" as="sourcePoint" />
            <mxPoint x="75.71428571428571" y="180" as="targetPoint" />
            <Array as="points">
              <mxPoint x="560" y="170" />
              <mxPoint x="560" y="180" />
            </Array>
          </mxGeometry>
        </mxCell>
        <mxCell id="SA-Xk729lbcdhGkagrMY-19" value="" style="rounded=0;whiteSpace=wrap;html=1;" vertex="1" parent="1">
          <mxGeometry x="330" y="240" width="120" height="40" as="geometry" />
        </mxCell>
        <mxCell id="SA-Xk729lbcdhGkagrMY-21" value="Preconfigured answers" style="shape=document;whiteSpace=wrap;html=1;boundedLbl=1;size=0.1;" vertex="1" parent="1">
          <mxGeometry x="330" y="280" width="120" height="200" as="geometry" />
        </mxCell>
        <mxCell id="SA-Xk729lbcdhGkagrMY-22" value="" style="endArrow=classic;html=1;rounded=0;" edge="1" parent="1">
          <mxGeometry width="50" height="50" relative="1" as="geometry">
            <mxPoint x="560" y="250" as="sourcePoint" />
            <mxPoint x="560" y="260" as="targetPoint" />
            <Array as="points">
              <mxPoint x="80" y="250" />
              <mxPoint x="80" y="260" />
            </Array>
          </mxGeometry>
        </mxCell>
        <mxCell id="SA-Xk729lbcdhGkagrMY-23" value="" style="endArrow=classic;html=1;rounded=0;entryX=1.017;entryY=0.056;entryDx=0;entryDy=0;entryPerimeter=0;" edge="1" parent="1" target="SA-Xk729lbcdhGkagrMY-21">
          <mxGeometry width="50" height="50" relative="1" as="geometry">
            <mxPoint x="560" y="290" as="sourcePoint" />
            <mxPoint x="620" y="310" as="targetPoint" />
          </mxGeometry>
        </mxCell>
        <mxCell id="SA-Xk729lbcdhGkagrMY-24" value="" style="endArrow=classic;html=1;rounded=0;exitX=1.017;exitY=0.102;exitDx=0;exitDy=0;exitPerimeter=0;" edge="1" parent="1" source="SA-Xk729lbcdhGkagrMY-21">
          <mxGeometry width="50" height="50" relative="1" as="geometry">
            <mxPoint x="520" y="360" as="sourcePoint" />
            <mxPoint x="560" y="300" as="targetPoint" />
          </mxGeometry>
        </mxCell>
        <mxCell id="SA-Xk729lbcdhGkagrMY-27" value="" style="endArrow=classic;html=1;rounded=0;" edge="1" parent="1">
          <mxGeometry width="50" height="50" relative="1" as="geometry">
            <mxPoint x="80" y="300" as="sourcePoint" />
            <mxPoint x="420" y="300" as="targetPoint" />
          </mxGeometry>
        </mxCell>
        <mxCell id="SA-Xk729lbcdhGkagrMY-28" value="" style="rounded=0;whiteSpace=wrap;html=1;" vertex="1" parent="1">
          <mxGeometry x="80" y="580" width="120" height="260" as="geometry" />
        </mxCell>
        <mxCell id="SA-Xk729lbcdhGkagrMY-56" style="edgeStyle=orthogonalEdgeStyle;rounded=0;orthogonalLoop=1;jettySize=auto;html=1;exitX=1;exitY=0.5;exitDx=0;exitDy=0;entryX=0;entryY=0.446;entryDx=0;entryDy=0;entryPerimeter=0;" edge="1" parent="1" source="SA-Xk729lbcdhGkagrMY-29" target="SA-Xk729lbcdhGkagrMY-52">
          <mxGeometry relative="1" as="geometry" />
        </mxCell>
        <mxCell id="SA-Xk729lbcdhGkagrMY-29" value="Write request" style="rounded=0;whiteSpace=wrap;html=1;" vertex="1" parent="1">
          <mxGeometry x="80" y="580" width="120" height="30" as="geometry" />
        </mxCell>
        <mxCell id="SA-Xk729lbcdhGkagrMY-30" value="Read request" style="rounded=0;whiteSpace=wrap;html=1;" vertex="1" parent="1">
          <mxGeometry x="80" y="640" width="120" height="30" as="geometry" />
        </mxCell>
        <mxCell id="SA-Xk729lbcdhGkagrMY-31" value="Write request" style="rounded=0;whiteSpace=wrap;html=1;" vertex="1" parent="1">
          <mxGeometry x="80" y="670" width="120" height="30" as="geometry" />
        </mxCell>
        <mxCell id="SA-Xk729lbcdhGkagrMY-32" value="Write request" style="rounded=0;whiteSpace=wrap;html=1;" vertex="1" parent="1">
          <mxGeometry x="80" y="610" width="120" height="30" as="geometry" />
        </mxCell>
        <mxCell id="SA-Xk729lbcdhGkagrMY-33" value="Read request" style="rounded=0;whiteSpace=wrap;html=1;" vertex="1" parent="1">
          <mxGeometry x="80" y="700" width="120" height="30" as="geometry" />
        </mxCell>
        <mxCell id="SA-Xk729lbcdhGkagrMY-34" value="Read request" style="rounded=0;whiteSpace=wrap;html=1;" vertex="1" parent="1">
          <mxGeometry x="80" y="730" width="120" height="30" as="geometry" />
        </mxCell>
        <mxCell id="SA-Xk729lbcdhGkagrMY-38" value="Master Out FIFO" style="rounded=0;whiteSpace=wrap;html=1;fillColor=#f5f5f5;fontColor=#333333;strokeColor=#666666;" vertex="1" parent="1">
          <mxGeometry x="80" y="520" width="120" height="60" as="geometry" />
        </mxCell>
        <mxCell id="SA-Xk729lbcdhGkagrMY-39" value="Master out buffer" style="rounded=0;whiteSpace=wrap;html=1;" vertex="1" parent="1">
          <mxGeometry x="285" y="730" width="470" height="40" as="geometry" />
        </mxCell>
        <mxCell id="SA-Xk729lbcdhGkagrMY-40" value="Master in buffer" style="rounded=0;whiteSpace=wrap;html=1;" vertex="1" parent="1">
          <mxGeometry x="70" y="970" width="470" height="40" as="geometry" />
        </mxCell>
        <mxCell id="SA-Xk729lbcdhGkagrMY-41" value="I2C" style="rounded=0;whiteSpace=wrap;html=1;" vertex="1" parent="1">
          <mxGeometry x="570" y="120" width="40" height="200" as="geometry" />
        </mxCell>
        <mxCell id="SA-Xk729lbcdhGkagrMY-46" value="request type (w/r)" style="rounded=0;whiteSpace=wrap;html=1;" vertex="1" parent="1">
          <mxGeometry x="285" y="550" width="120" height="20" as="geometry" />
        </mxCell>
        <mxCell id="SA-Xk729lbcdhGkagrMY-47" value="request num" style="rounded=0;whiteSpace=wrap;html=1;" vertex="1" parent="1">
          <mxGeometry x="285" y="570" width="120" height="20" as="geometry" />
        </mxCell>
        <mxCell id="SA-Xk729lbcdhGkagrMY-48" value="start" style="rounded=0;whiteSpace=wrap;html=1;" vertex="1" parent="1">
          <mxGeometry x="285" y="590" width="120" height="20" as="geometry" />
        </mxCell>
        <mxCell id="SA-Xk729lbcdhGkagrMY-49" value="end2" style="rounded=0;whiteSpace=wrap;html=1;" vertex="1" parent="1">
          <mxGeometry x="285" y="630" width="120" height="20" as="geometry" />
        </mxCell>
        <mxCell id="SA-Xk729lbcdhGkagrMY-50" value="end" style="rounded=0;whiteSpace=wrap;html=1;" vertex="1" parent="1">
          <mxGeometry x="285" y="610" width="120" height="20" as="geometry" />
        </mxCell>
        <mxCell id="SA-Xk729lbcdhGkagrMY-52" value="" style="rounded=0;whiteSpace=wrap;html=1;fillColor=#f5f5f5;fontColor=#333333;strokeColor=#666666;" vertex="1" parent="1">
          <mxGeometry x="260" y="550" width="25" height="100" as="geometry" />
        </mxCell>
        <mxCell id="SA-Xk729lbcdhGkagrMY-57" value="request type (w/r)" style="rounded=0;whiteSpace=wrap;html=1;" vertex="1" parent="1">
          <mxGeometry x="525" y="550" width="120" height="20" as="geometry" />
        </mxCell>
        <mxCell id="SA-Xk729lbcdhGkagrMY-58" value="request num" style="rounded=0;whiteSpace=wrap;html=1;" vertex="1" parent="1">
          <mxGeometry x="525" y="510" width="120" height="20" as="geometry" />
        </mxCell>
        <mxCell id="SA-Xk729lbcdhGkagrMY-59" value="data start" style="rounded=0;whiteSpace=wrap;html=1;" vertex="1" parent="1">
          <mxGeometry x="525" y="590" width="120" height="20" as="geometry" />
        </mxCell>
        <mxCell id="SA-Xk729lbcdhGkagrMY-60" value="data end2" style="rounded=0;whiteSpace=wrap;html=1;" vertex="1" parent="1">
          <mxGeometry x="525" y="630" width="120" height="20" as="geometry" />
        </mxCell>
        <mxCell id="SA-Xk729lbcdhGkagrMY-61" value="data end" style="rounded=0;whiteSpace=wrap;html=1;" vertex="1" parent="1">
          <mxGeometry x="525" y="610" width="120" height="20" as="geometry" />
        </mxCell>
        <mxCell id="SA-Xk729lbcdhGkagrMY-62" value="" style="rounded=0;whiteSpace=wrap;html=1;fillColor=#f5f5f5;fontColor=#333333;strokeColor=#666666;" vertex="1" parent="1">
          <mxGeometry x="500" y="550" width="25" height="100" as="geometry" />
        </mxCell>
        <mxCell id="SA-Xk729lbcdhGkagrMY-63" value="slave addr" style="rounded=0;whiteSpace=wrap;html=1;" vertex="1" parent="1">
          <mxGeometry x="525" y="570" width="120" height="20" as="geometry" />
        </mxCell>
      </root>
    </mxGraphModel>
  </diagram>
</mxfile>
